<svg width="446" height="180" viewBox="0 0 446 180" fill="none" xmlns="http://www.w3.org/2000/svg">
<path d="M275 0C283.837 3.64005e-06 291 7.16345 291 16V164C291 172.837 283.837 180 275 180H16C7.16345 180 2.09397e-07 172.837 0 164V112.565C12.2681 112.337 22.1426 102.323 22.1426 90C22.1425 77.6774 12.2681 67.662 0 67.4336V16C0 7.16344 7.16344 1.24825e-07 16 0H275Z" fill="#F1AC04"/>
<path d="M430 0C438.837 1.7395e-06 446 7.16345 446 16V62.2607C445.914 62.26 445.828 62.2578 445.742 62.2578C430.421 62.2581 418 74.6785 418 90C418 105.322 430.421 117.743 445.742 117.743C445.828 117.743 445.914 117.74 446 117.739V164C446 172.837 438.837 180 430 180H307C298.163 180 291 172.837 291 164V16C291 7.16344 298.163 0 307 0H430Z" fill="#FFCA4A"/>
<path d="M436 64V23.4C436 15.4471 429.553 9 421.6 9H315.4C307.447 9 301 15.4471 301 23.4V159.6C301 167.553 307.447 174 315.4 174H421.6C429.553 174 436 167.553 436 159.6V115.5" stroke="#684A00" stroke-opacity="0.5" stroke-width="2" stroke-dasharray="4 4"/>
<path d="M10 67.9375V17C10 12.5817 13.5817 9 18 9H273C277.418 9 281 12.5817 281 17V162C281 166.418 277.418 170 273 170H18C13.5817 170 10 166.418 10 162V111.062" stroke="#684A00" stroke-opacity="0.5" stroke-width="2" stroke-dasharray="4 4"/>
</svg>
